<?xml version="1.0" encoding="utf-8"?>
<!-- Generator: Adobe Illustrator 24.3.0, SVG Export Plug-In . SVG Version: 6.00 Build 0)  -->
<svg version="1.1" id="Layer_1" xmlns="http://www.w3.org/2000/svg" xmlns:xlink="http://www.w3.org/1999/xlink" x="0px" y="0px"
	 viewBox="0 0 48 48" style="enable-background:new 0 0 48 48;" xml:space="preserve">
<style type="text/css">
	.st0{fill:#FFFFFF;}
</style>
<path class="st0" d="M16.1,22h25.2c0.9,0,1.6,0.9,1.6,2v0c0,1.1-0.7,2-1.6,2H16.1c-0.9,0-1.6-0.9-1.6-2v0C14.6,22.9,15.3,22,16.1,22
	z M8,10h32c1.1,0,2,0.9,2,2v0c0,1.1-0.9,2-2,2H8c-1.1,0-2-0.9-2-2v0C6,10.9,6.9,10,8,10z M24.1,34h16.8c0.6,0,1.1,0.9,1.1,2v0
	c0,1.1-0.5,2-1.1,2H24.1c-0.6,0-1.1-0.9-1.1-2l0,0C23.1,34.9,23.5,34,24.1,34z"/>
</svg>
